Coordinates
version=1
nRows=23
nColumns=38
inDegrees=no

Units are S.I. units (second, meters, Newtons, ...)
If the header above contains a line with 'inDegrees', this indicates whether rotational values are in degrees (yes) or radians (no).

endheader
time	pelvis_tilt	pelvis_list	pelvis_rotation	pelvis_tx	pelvis_ty	pelvis_tz	hip_flexion_r	hip_adduction_r	hip_rotation_r	knee_angle_r	ankle_angle_r	subtalar_angle_r	mtp_angle_r	hip_flexion_l	hip_adduction_l	hip_rotation_l	knee_angle_l	ankle_angle_l	subtalar_angle_l	mtp_angle_l	lumbar_extension	lumbar_bending	lumbar_rotation	arm_flex_r	arm_add_r	arm_rot_r	elbow_flex_r	pro_sup_r	wrist_flex_r	wrist_dev_r	arm_flex_l	arm_add_l	arm_rot_l	elbow_flex_l	pro_sup_l	wrist_flex_l	wrist_dev_l
0	-0.0253341	1.51642	-1.38206	0.772942	1.7483	0.924049	0.476264	-0.112238	-0.37019	0.32516	0.188427	0	0	-0.329288	0.0139758	0.0249038	0.392156	0.334794	0	0	-0.164287	-0.0451045	-0.219421	-0.0656868	-0.155839	0.0548977	0.346137	1.19512	0	0	-0.141325	-0.456934	0.509508	0.630008	0.827027	0	0
0.01	-0.0646013	1.525	-1.32823	0.773411	1.73317	0.922836	0.473017	-0.11394	-0.381886	0.329502	0.175442	0	0	-0.308206	0.00307495	0.0270378	0.440472	0.322945	0	0	-0.14958	-0.0395467	-0.233285	-0.0747437	-0.160896	0.0653452	0.34647	1.18124	0	0	-0.154462	-0.45	0.493275	0.632936	0.829373	0	0
0.02	-0.192801	1.53209	-1.19	0.773391	1.71787	0.922136	0.468292	-0.110723	-0.388375	0.325087	0.130341	0	0	-0.285513	-0.00999435	0.0242014	0.490946	0.30336	0	0	-0.136758	-0.0309393	-0.241101	-0.0849608	-0.166531	0.0673782	0.350806	1.16786	0	0	-0.166892	-0.441376	0.472677	0.635849	0.832862	0	0
0.03	-0.463589	1.53888	-0.915642	0.772707	1.70295	0.92179	0.471766	-0.105209	-0.391245	0.32915	0.0740424	0	0	-0.256205	-0.0238067	0.0155921	0.546899	0.275316	0	0	-0.12309	-0.0204808	-0.24198	-0.0948244	-0.172954	0.070461	0.356669	1.1538	0	0	-0.176849	-0.431715	0.453698	0.637469	0.83206	0	0
0.04	-0.890841	1.5421	-0.491848	0.77154	1.68858	0.921823	0.486025	-0.100357	-0.390175	0.354221	0.0388486	0	0	-0.221109	-0.0368306	0.0025911	0.607722	0.236992	0	0	-0.109915	-0.0088647	-0.236923	-0.10296	-0.180445	0.0773614	0.363909	1.13824	0	0	-0.185066	-0.421193	0.436839	0.639747	0.825586	0	0
0.05	-1.31229	1.54091	-0.0774055	0.77034	1.67457	0.922046	0.507699	-0.0988849	-0.384893	0.398456	0.0317184	0	0	-0.182588	-0.0468347	-0.00882465	0.671759	0.189197	0	0	-0.0984012	0.00150472	-0.229795	-0.107511	-0.18545	0.0676607	0.366457	1.14969	0	0	-0.19401	-0.41509	0.435506	0.651566	0.771727	0	0
0.06	-1.49108	1.53599	0.095673	0.769471	1.66065	0.92272	0.523169	-0.0972326	-0.377482	0.444673	0.034833	0	0	-0.147342	-0.0567778	-0.015597	0.736876	0.133727	0	0	-0.0940666	0.0126371	-0.226717	-0.109701	-0.192147	0.0726248	0.370018	1.14532	0	0	-0.205524	-0.407407	0.422508	0.6645	0.751761	0	0
0.07	-1.49632	1.5307	0.0970933	0.768803	1.64676	0.923716	0.528585	-0.0936571	-0.370722	0.481976	0.0342877	0	0	-0.115738	-0.0672406	-0.0184054	0.802078	0.0754176	0	0	-0.095965	0.024124	-0.226541	-0.110557	-0.198439	0.078371	0.373411	1.14186	0	0	-0.216379	-0.401564	0.414029	0.677196	0.735808	0	0
0.08	-1.47822	1.52571	0.0758785	0.767963	1.63302	0.924608	0.528185	-0.0887375	-0.368053	0.509719	0.0302085	0	0	-0.0830902	-0.077994	-0.0198044	0.867625	0.0152682	0	0	-0.0991243	0.0343627	-0.227229	-0.111959	-0.204001	0.0843668	0.378295	1.13797	0	0	-0.22563	-0.398178	0.411098	0.687227	0.723819	0	0
0.09	-1.48976	1.52086	0.084173	0.76677	1.61952	0.925247	0.523816	-0.0824085	-0.3707	0.527309	0.0278642	0	0	-0.0473487	-0.0892085	-0.020629	0.932592	-0.0454564	0	0	-0.100774	0.0429036	-0.22721	-0.114876	-0.208892	0.0899143	0.385691	1.13295	0	0	-0.232181	-0.397594	0.415619	0.694915	0.72099	0	0
0.1	-1.5231	1.51658	0.114036	0.765355	1.60628	0.925807	0.515254	-0.0752626	-0.377455	0.534592	0.0297966	0	0	-0.00984699	-0.0995343	-0.0199599	0.993989	-0.104327	0	0	-0.100729	0.0495125	-0.226001	-0.118961	-0.213145	0.0938626	0.394476	1.12766	0	0	-0.23526	-0.3985	0.42543	0.697906	0.724772	0	0
0.11	-1.56166	1.51395	0.149142	0.763897	1.59331	0.926497	0.503199	-0.0685778	-0.384694	0.534244	0.034508	0	0	0.0270691	-0.106525	-0.0166842	1.04921	-0.160232	0	0	-0.099778	0.0534356	-0.224309	-0.122939	-0.216734	0.097666	0.402567	1.1214	0	0	-0.235921	-0.399758	0.435576	0.696322	0.72933	0	0
0.12	-1.60898	1.51255	0.193006	0.762398	1.58051	0.927412	0.490219	-0.0621594	-0.389867	0.530546	0.0392943	0	0	0.0626879	-0.110512	-0.0116028	1.09765	-0.212604	0	0	-0.097641	0.055412	-0.220707	-0.126146	-0.214855	0.0692405	0.404993	1.16038	0	0	-0.232865	-0.401937	0.451049	0.68995	0.741559	0	0
0.13	-1.63929	1.51339	0.219254	0.760902	1.56799	0.928833	0.476236	-0.0565602	-0.389855	0.526452	0.0431004	0	0	0.0956135	-0.110002	-0.00462456	1.14256	-0.247603	0	0	-0.0968334	0.0547714	-0.217279	-0.130027	-0.218316	0.0808099	0.41344	1.13847	0	0	-0.22961	-0.404334	0.464932	0.684138	0.740567	0	0
0.14	-1.66156	1.51498	0.236148	0.759294	1.55567	0.930631	0.463125	-0.0502481	-0.383382	0.524298	0.0475246	0	0	0.128003	-0.107315	0.00285052	1.18828	-0.248266	0	0	-0.0970171	0.0530462	-0.212209	-0.131101	-0.218144	0.0790073	0.414391	1.14097	0	0	-0.22726	-0.406148	0.472347	0.680739	0.747375	0	0
0.15	-1.67662	1.51685	0.244548	0.757574	1.54351	0.932779	0.450843	-0.0429792	-0.371171	0.524195	0.0537376	0	0	0.159802	-0.104303	0.00909041	1.23151	-0.223541	0	0	-0.0977992	0.0508773	-0.205654	-0.131125	-0.217051	0.0808208	0.412185	1.14506	0	0	-0.225536	-0.407624	0.476587	0.678487	0.756	0	0
0.16	-1.67042	1.51961	0.230918	0.755836	1.53144	0.935269	0.437268	-0.0359463	-0.355814	0.524433	0.060708	0	0	0.189253	-0.101088	0.013195	1.26847	-0.19034	0	0	-0.100082	0.0479856	-0.19843	-0.129952	-0.215073	0.0815694	0.409342	1.14776	0	0	-0.224744	-0.408521	0.476716	0.677321	0.764136	0	0
0.17	-1.64136	1.52361	0.194402	0.754213	1.51946	0.937988	0.421182	-0.03068	-0.341337	0.52273	0.0666078	0	0	0.216532	-0.0966551	0.0159301	1.29876	-0.159377	0	0	-0.103908	0.0441764	-0.190916	-0.128398	-0.212245	0.07944	0.406168	1.1479	0	0	-0.223864	-0.409106	0.47528	0.677332	0.771172	0	0
0.18	-1.59552	1.52785	0.140792	0.752555	1.50757	0.940828	0.401661	-0.0255145	-0.329182	0.51499	0.0702442	0	0	0.242517	-0.0922335	0.0174557	1.32252	-0.134851	0	0	-0.108385	0.0402504	-0.182741	-0.126863	-0.208685	0.0754396	0.402536	1.14674	0	0	-0.222591	-0.409697	0.474555	0.677156	0.777049	0	0
0.19	-1.53638	1.53162	0.0732665	0.750796	1.49576	0.943697	0.37917	-0.019833	-0.319659	0.501192	0.0723867	0	0	0.2677	-0.0885736	0.0179874	1.34015	-0.116486	0	0	-0.113195	0.0368574	-0.173664	-0.126463	-0.206324	0.0800728	0.401527	1.12328	0	0	-0.220917	-0.408855	0.468629	0.673937	0.7957	0	0
0.2	-1.487	1.53545	0.0157199	0.749047	1.48408	0.946413	0.356632	-0.015616	-0.314063	0.486057	0.0756128	0	0	0.293351	-0.0845662	0.0186353	1.35261	-0.102034	0	0	-0.117405	0.0333088	-0.163673	-0.126483	-0.202073	0.0699577	0.399259	1.12947	0	0	-0.217878	-0.409826	0.468109	0.672578	0.7881	0	0
0.21	-1.43407	1.53886	-0.0457131	0.747303	1.4725	0.948999	0.333589	-0.0115872	-0.31058	0.469547	0.0792925	0	0	0.318452	-0.0812743	0.0186432	1.36	-0.0888254	0	0	-0.121365	0.0300495	-0.151879	-0.127691	-0.197374	0.0525052	0.398996	1.13364	0	0	-0.212786	-0.413479	0.479073	0.674017	0.755143	0	0
0.22	-1.40522	1.54248	-0.0838318	0.74556	1.46103	0.95136	0.31212	-0.00855643	-0.308224	0.453842	0.0834855	0	0	0.343627	-0.0782185	0.017445	1.36244	-0.0761771	0	0	-0.124135	0.0265423	-0.139972	-0.129806	-0.195502	0.0493783	0.40297	1.12015	0	0	-0.208824	-0.41454	0.480054	0.673026	0.748	0	0
